HIERARCHY
ROOT Hip
{
  OFFSET 0.0 0.0 0.0
  CHANNELS 6 Xposition Yposition Zposition Xrotation Yrotation Zrotation
  JOINT LowerSpine
  {
    OFFSET 0.0 0.061367 -0.03653
    CHANNELS 3 Xrotation Yrotation Zrotation
    JOINT MiddleSpine
    {
      OFFSET 0.0 0.056002 0.002633
      CHANNELS 3 Xrotation Yrotation Zrotation
      JOINT Chest
      {
        OFFSET 0.0 0.069296 -0.013882
        CHANNELS 3 Xrotation Yrotation Zrotation
        JOINT Neck
        {
          OFFSET 0.0 0.156156 -0.002923
          CHANNELS 3 Xrotation Yrotation Zrotation
          JOINT Head
          {
            OFFSET 0.0 0.088183 0.023986
            CHANNELS 3 Xrotation Yrotation Zrotation
            End Site
            {
              OFFSET 1e-06 0.123215 0.003678
            }
          }
        }
        JOINT LClavicle
        {
          OFFSET 0.014189 0.150698 0.046467
          CHANNELS 3 Xrotation Yrotation Zrotation
          JOINT LShoulder
          {
            OFFSET 0.082893 0.021616 -0.034976
            CHANNELS 3 Xrotation Yrotation Zrotation
            JOINT LForearm
            {
              OFFSET 0.195645 -0.000695 -0.001695
              CHANNELS 3 Xrotation Yrotation Zrotation
              JOINT LHand
              {
                OFFSET 0.163209 0.000474 -0.000977
                CHANNELS 3 Xrotation Yrotation Zrotation
                End Site
                {
                  OFFSET 0.0 0.006864 0.0
                }
              }
            }
          }
        }
        JOINT RClavicle
        {
          OFFSET -0.014189 0.150698 0.046467
          CHANNELS 3 Xrotation Yrotation Zrotation
          JOINT RShoulder
          {
            OFFSET -0.082908 0.021619 -0.034982
            CHANNELS 3 Xrotation Yrotation Zrotation
            JOINT RForearm
            {
              OFFSET -0.195645 -0.000695 -0.001695
              CHANNELS 3 Xrotation Yrotation Zrotation
              JOINT RHand
              {
                OFFSET -0.163209 0.000474 -0.000977
                CHANNELS 3 Xrotation Yrotation Zrotation
                End Site
                {
                  OFFSET 0.0 0.006864 0.0
                }
              }
            }
          }
        }
      }
    }
  }
  JOINT RThigh
  {
    OFFSET -0.072558 0.02774 -0.005953
    CHANNELS 3 Xrotation Yrotation Zrotation
    JOINT RShin
    {
      OFFSET -0.005253 -0.285537 0.0
      CHANNELS 3 Xrotation Yrotation Zrotation
      JOINT RFoot
      {
        OFFSET 0.0 -0.28038 0.0
        CHANNELS 3 Xrotation Yrotation Zrotation
        JOINT RToe
        {
          OFFSET 0.0 -0.030816 0.064441
          CHANNELS 3 Xrotation Yrotation Zrotation
          End Site
          {
            OFFSET 0.0 0.0 0.043231
          }
        }
      }
    }
  }
  JOINT LThigh
  {
    OFFSET 0.072557 0.027741 -0.005953
    CHANNELS 3 Xrotation Yrotation Zrotation
    JOINT LShin
    {
      OFFSET 0.005253 -0.285539 0.0
      CHANNELS 3 Xrotation Yrotation Zrotation
      JOINT LFoot
      {
        OFFSET 0.0 -0.28038 0.0
        CHANNELS 3 Xrotation Yrotation Zrotation
        JOINT LToe
        {
          OFFSET 0.0 -0.030816 0.064441
          CHANNELS 3 Xrotation Yrotation Zrotation
          End Site
          {
            OFFSET 0.0 0.0 0.043231
          }
        }
      }
    }
  }
}
MOTION
Frames: 16
Frame Time: 0.03333333333333333
-0.001367 0.585596 -0.001127 6.53793 9.557501 -0.085372 -4.263802 2.892178 -1.657134 -0.539799 0.821668 -4.68245 -7.068297 0.41257 4.543081 -3.422673 -3.872602 -0.796054 -2.430223 3.930589 0.078261 -0.329022 5.628217 -13.917032 22.294992 -23.8636 -52.718758 9.897995 -25.123348 -4.216973 -2.849557 -2.29901 1.431237 3.852146 -0.049085 18.054005 14.282358 31.426336 53.94067 5.456989 18.714813 4.211654 4.162067 0.944535 1.238691 -7.105271 -2.606076 -1.739877 17.941816 0.16104 3.056899 -2.911652 0.454081 3.781285 0.353543 -2.99595 -2.301959 -4.082784 6.071886 -4.73866 8.454018 4.157499 0.459537 1.641256 -0.72411 -4.084747 -3.44805 2.720937 1.008348 
-0.021307 0.581291 -0.00738 8.308304 12.832846 2.743502 -7.890289 6.915435 -2.85619 -0.469684 -0.851174 -10.330665 -8.122813 -3.200123 5.56317 -2.073168 -9.981807 -2.420672 -5.854173 9.868961 1.267808 -3.940403 9.412971 -12.299703 24.579149 -20.771212 -48.101578 8.860694 -24.397038 -7.866666 -7.872924 -6.8477 4.647024 6.882148 3.985047 21.173548 15.87483 29.804604 48.173141 5.929613 24.19182 8.96276 10.10672 3.057806 3.867306 -11.710106 -1.827947 -4.475568 23.999838 3.70971 2.992591 -3.26242 -2.520322 8.888857 0.806093 -9.417007 -6.064178 -8.096175 9.161111 -7.52222 10.260117 8.2886 2.806803 3.716701 -0.653604 -9.598627 -8.633879 7.557156 3.066984 
-0.02879 0.574431 2e-05 9.339526 13.091366 4.58528 -8.070611 7.413517 -4.190652 -0.479195 -1.086936 -11.490029 -9.224774 -4.484671 6.725848 -2.066695 -11.043129 -2.844879 -6.024065 11.262425 1.540796 -4.183191 10.709908 -11.794872 25.627022 -20.949303 -47.38599 9.499198 -25.860172 -9.081175 -8.527994 -7.738503 5.36886 7.805912 3.871171 21.92041 15.886976 29.520184 47.557247 5.425202 25.662096 10.252428 11.274757 3.268599 4.377275 -12.256253 -3.147994 -5.946506 22.006386 3.501649 4.291207 -3.853851 -2.736535 10.319064 1.222272 -10.257242 -6.862385 -10.069715 8.946504 -8.362172 10.838021 9.585821 3.258445 4.500654 0.023953 -10.751559 -9.362743 8.6322 3.590566 
-0.026303 0.569441 0.001419 9.914697 12.549411 5.389507 -7.749618 7.478927 -4.901428 -0.729405 -1.133357 -11.728426 -9.840434 -4.91854 7.3567 -1.469055 -11.228274 -2.983354 -6.196505 11.672158 1.595923 -4.036191 11.359902 -11.709128 25.606714 -20.768057 -47.613514 9.277727 -26.793739 -9.613919 -8.734681 -7.956 5.573665 8.209194 3.222468 22.21504 15.406146 29.137327 47.924129 4.622833 25.660879 10.674849 11.703761 3.350606 4.456345 -13.160806 -3.92389 -6.585504 22.053711 3.083462 4.961027 -3.8941 -3.126238 10.653825 1.321379 -10.524568 -7.022647 -11.144128 8.905247 -8.983693 10.796097 9.754764 3.702001 4.559752 0.280852 -11.16521 -9.808564 8.894391 3.653967 
-0.02672 0.567 0.005725 10.528369 12.313232 5.760613 -7.368639 7.531178 -5.218454 -0.827267 -1.141757 -11.81377 -10.174479 -4.844273 7.781773 -1.008847 -11.278476 -3.006699 -6.332498 11.823645 1.640095 -4.088019 11.542018 -11.730646 25.366669 -20.655895 -47.895569 9.033828 -26.671078 -9.868874 -8.873977 -8.041836 5.641073 8.338698 2.991801 22.307085 14.485052 29.215345 48.468147 3.687609 24.512697 10.866535 11.918823 3.427829 4.468203 -14.150258 -3.920446 -6.909506 22.808115 3.260184 5.327805 -4.134264 -3.467557 10.594891 1.299868 -10.652699 -7.068902 -11.997105 9.029275 -9.524984 10.718135 9.649785 3.995453 4.215501 0.357914 -11.430024 -10.071037 8.990162 3.672303 
-0.028422 0.56404 0.01012 11.5094 12.48235 6.295896 -7.257468 7.605466 -5.202785 -0.946002 -1.103193 -11.875454 -10.507072 -4.592991 7.950901 -0.739823 -11.327914 -2.956603 -6.376561 11.906953 1.668829 -4.258002 11.511829 -11.672084 25.438843 -20.360329 -48.113262 8.793312 -26.483137 -10.039942 -8.970027 -8.10379 5.689788 8.401523 3.143866 22.224287 13.719882 29.264601 48.948917 3.054713 23.199739 10.831391 12.014201 3.480191 4.498411 -15.40871 -3.467155 -6.99828 23.430124 3.829223 5.310805 -4.712246 -3.808977 10.398739 1.222624 -10.772466 -7.084864 -13.257166 9.116201 -9.848755 10.643079 9.484333 4.156826 3.789611 0.360148 -11.572158 -10.190297 9.065845 3.696105 
-0.031287 0.561977 0.014006 12.578723 13.148641 6.792549 -7.376617 7.685504 -5.04724 -1.042374 -1.006917 -11.946168 -10.729069 -4.285864 8.147428 -0.758533 -11.400793 -2.938143 -6.395644 11.974551 1.68902 -4.378063 11.485846 -11.602983 25.688341 -19.89131 -48.261574 8.668466 -26.553556 -10.184268 -9.074712 -8.156971 5.714615 8.476468 3.200686 22.183361 13.073718 29.42358 49.256054 2.503714 21.882982 10.717256 12.077567 3.513579 4.540601 -16.477106 -2.902219 -7.030748 23.728729 4.46781 5.194497 -5.337677 -4.090735 10.194223 1.137951 -10.875954 -7.099201 -14.641007 9.232102 -9.977182 10.631815 9.451756 4.228503 3.518557 0.392194 -11.660628 -10.263803 9.130918 3.719233 
-0.03509 0.560552 0.019251 13.600885 14.112872 7.207571 -7.614525 7.837137 -4.874287 -1.120177 -0.890205 -12.061348 -10.906038 -4.066367 8.364976 -0.88973 -11.536517 -2.949427 -6.430583 12.057225 1.729782 -4.50044 11.520411 -11.485651 26.070492 -19.311352 -48.212852 8.646917 -26.912563 -10.376909 -9.201848 -8.229142 5.746318 8.575863 3.201506 22.236353 12.579696 29.545916 49.431797 2.028473 20.768353 10.62906 12.160934 3.540541 4.61336 -17.431187 -2.376207 -7.016785 23.876682 5.025627 5.142561 -5.926643 -4.369433 10.042114 1.048265 -11.015257 -7.131374 -16.105419 9.332935 -10.005828 10.774931 9.587531 4.230196 3.413682 0.370266 -11.819689 -10.339632 9.213082 3.758758 
-0.039536 0.559139 0.026622 14.758707 15.824217 7.257514 -7.969917 8.012818 -4.856133 -1.130018 -0.801461 -12.322829 -11.09948 -4.012688 8.637456 -1.130259 -11.792176 -2.991162 -6.557007 12.260269 1.804518 -4.503556 11.730887 -11.306083 26.512049 -18.853163 -47.927948 8.679645 -27.232656 -10.680234 -9.409099 -8.373344 5.823316 8.783384 3.044534 22.539528 12.04384 29.744122 49.565395 1.432597 19.737366 10.590396 12.363853 3.570599 4.74659 -18.527807 -2.001324 -6.932534 24.229959 5.444167 5.268476 -6.316738 -4.804585 9.932795 0.892704 -11.262763 -7.2461 -17.959261 9.590482 -10.081729 11.034073 10.016465 4.286108 3.566085 0.285 -12.161471 -10.483293 9.374951 3.880469 
-0.044053 0.557431 0.034746 16.111931 17.418472 6.996567 -8.266903 8.185987 -4.986977 -1.202604 -0.711553 -12.549426 -11.238959 -4.023044 9.145348 -1.182843 -12.006563 -3.07462 -6.723312 12.532928 1.901409 -4.397789 12.029595 -11.141656 26.972153 -18.487625 -47.6954 8.658008 -27.320738 -11.02282 -9.664087 -8.528163 5.921447 9.020782 2.696666 23.015301 11.384849 29.640388 49.753704 0.510486 19.18626 10.589894 12.615233 3.599981 4.91878 -19.813705 -2.138295 -6.759724 24.934242 5.388764 5.729528 -6.691507 -5.304827 9.755151 0.612501 -11.561152 -7.397904 -20.664022 9.663264 -10.23093 11.443013 10.450771 4.47495 3.885092 0.186397 -12.600421 -10.64359 9.561653 4.05111 
-0.046109 0.555983 0.043769 17.103836 19.0467 6.426553 -8.561451 8.314465 -5.147902 -1.232688 -0.712336 -12.754557 -11.413552 -4.097164 9.619746 -1.235144 -12.241977 -3.23473 -6.937935 12.83748 2.012491 -4.211358 12.371019 -11.015015 27.405542 -18.061239 -47.506565 8.633904 -27.345282 -11.412131 -9.948547 -8.66732 6.025959 9.252298 2.194453 23.437628 10.625217 29.35532 49.947651 -0.632878 18.828382 10.636941 12.910748 3.590598 5.097332 -20.430141 -2.646198 -6.654588 25.349543 5.149754 6.427534 -6.811356 -5.819587 9.603471 0.39894 -11.832367 -7.528473 -23.018726 9.451453 -10.508692 11.68951 10.938745 4.648296 4.338253 0.029136 -13.110501 -10.80644 9.75962 4.255248 
-0.046687 0.554781 0.052733 17.994587 20.507448 5.578776 -8.809258 8.39366 -5.467939 -1.203121 -0.847671 -12.96307 -11.810641 -4.326165 10.05196 -1.15864 -12.50691 -3.349855 -7.187464 13.205041 2.135368 -3.984647 12.80899 -10.77869 27.676453 -17.761955 -47.459084 8.493009 -26.956137 -11.845245 -10.275123 -8.815799 6.18783 9.484979 1.63696 23.908224 9.889678 28.810814 50.141102 -1.749777 18.89743 10.834626 13.274492 3.620066 5.289635 -20.573374 -3.629324 -6.578269 25.733362 4.748353 7.365428 -6.825317 -6.432289 9.511236 0.106295 -12.181416 -7.683418 -25.76487 8.925603 -10.856328 11.917005 11.374746 5.012105 4.918541 -0.15957 -13.64572 -11.008101 10.012564 4.517422 
-0.042322 0.554495 0.062807 18.315851 21.263643 4.183518 -9.088407 8.462605 -5.611799 -1.182241 -1.026622 -13.053292 -12.104838 -4.411539 10.589746 -0.909909 -12.746145 -3.477984 -7.47303 13.472543 2.243831 -3.738034 13.167855 -10.560242 27.960917 -17.263744 -47.752701 8.160787 -26.388025 -12.108114 -10.532464 -8.906099 6.365954 9.538997 0.921549 24.380165 9.351009 28.141901 50.181248 -2.525839 19.616041 11.183125 13.567135 3.650373 5.45179 -19.15694 -5.007675 -6.380948 25.606522 4.165246 8.254734 -6.537439 -6.994317 9.428655 -0.320389 -12.47787 -7.762184 -27.882437 8.327654 -11.23959 11.793302 11.872708 5.359948 5.765442 -0.330597 -13.997335 -11.170469 10.224332 4.747209 
-0.035583 0.554715 0.075008 17.918421 21.4114 3.169525 -9.261709 8.694484 -5.812599 -1.147937 -1.182345 -13.203043 -12.201087 -4.475695 11.31841 -0.482699 -13.09095 -3.607369 -7.765857 13.819814 2.354181 -3.590642 13.664974 -10.335794 28.298162 -16.656414 -47.841751 7.77252 -25.898409 -12.426885 -10.851504 -9.02101 6.577229 9.589203 0.128538 24.89419 9.066884 27.318331 50.091537 -3.170063 21.023294 11.720655 13.927564 3.676877 5.630701 -16.748003 -6.563828 -6.342362 25.151947 3.68368 9.090924 -5.991618 -7.28263 9.648612 -0.71833 -12.803123 -7.842505 -28.488089 7.833874 -12.036574 11.008456 12.366488 5.706586 6.722073 -0.467506 -14.307789 -11.372229 10.494143 4.976939 
-0.029893 0.554909 0.08764 17.589972 20.96036 2.662293 -9.254818 8.820206 -6.040906 -1.186763 -1.236167 -13.262531 -12.24501 -4.440757 12.048091 0.008746 -13.287792 -3.651232 -7.914545 14.106216 2.413007 -3.277478 14.201072 -10.080222 28.517586 -16.032986 -48.101589 7.667786 -25.645718 -12.612823 -11.05122 -9.100529 6.764377 9.661984 -0.822361 25.372368 8.854227 26.568834 49.966412 -3.607187 22.600964 12.238102 14.184345 3.639201 5.77066 -14.831926 -8.028101 -6.274179 24.940742 3.147484 9.801763 -5.407248 -7.536458 9.738785 -1.073118 -13.051827 -7.870212 -29.150152 7.373801 -12.69425 10.410903 12.931776 5.998929 7.66167 -0.539086 -14.472056 -11.537944 10.692766 5.170569 
-0.025616 0.554667 0.099277 17.446661 20.219543 2.692244 -9.356412 8.794521 -6.159419 -1.375648 -1.2012 -13.218008 -12.38208 -4.356863 12.682559 0.549158 -13.39946 -3.751309 -7.938472 14.284583 2.421545 -2.918872 14.68784 -9.916447 28.817654 -15.329147 -48.598392 7.746694 -25.714445 -12.664041 -11.100373 -9.115822 6.908944 9.702678 -1.895468 25.716555 8.856898 25.69318 49.989716 -3.87934 24.507551 12.56548 14.321159 3.542371 5.848107 -13.482284 -9.324832 -6.316078 24.842445 2.597632 10.277084 -4.808802 -7.742533 9.675316 -1.372638 -13.152641 -7.830616 -29.928408 6.957402 -13.376162 9.455594 13.299258 6.232616 8.430616 -0.555019 -14.469449 -11.625 10.790178 5.313968 
